<?xml version="1.0" standalone="no"?>
<!DOCTYPE svg PUBLIC "-//W3C//DTD SVG 20010904//EN"
 "http://www.w3.org/TR/2001/REC-SVG-20010904/DTD/svg10.dtd">
<svg version="1.0" xmlns="http://www.w3.org/2000/svg"
 width="64.000000pt" height="64.000000pt" viewBox="0 0 64.000000 64.000000"
 preserveAspectRatio="xMidYMid meet">
<g transform="translate(0.000000,64.000000) scale(0.100000,-0.100000)"
fill="#000000" stroke="none">
<path d="M177 614 c-25 -28 -40 -81 -24 -87 11 -3 -2 -67 -27 -132 -8 -22 -15
-57 -16 -77 0 -37 1 -38 35 -38 24 0 35 -5 35 -15 0 -8 -2 -15 -4 -15 -21 0
-116 23 -134 32 -19 10 -25 9 -32 -2 -15 -23 -12 -31 7 -19 14 8 34 4 88 -19
l70 -29 8 -54 c4 -30 8 -70 9 -89 2 -33 12 -50 32 -50 5 0 3 7 -4 15 -20 24
-7 235 15 247 21 12 11 66 -22 130 -15 27 -23 54 -19 64 5 14 12 11 45 -17 21
-19 41 -42 44 -51 3 -10 15 -18 26 -18 13 0 21 -6 21 -18 0 -9 12 -35 26 -56
21 -31 31 -37 51 -33 23 4 25 2 19 -25 -3 -17 -6 -34 -6 -39 0 -4 -24 -11 -53
-14 -30 -4 -59 -10 -65 -14 -6 -4 -14 -44 -18 -89 -4 -45 -11 -82 -15 -82 -5
0 -9 -4 -9 -10 0 -5 18 -9 40 -8 l40 1 0 69 0 68 45 0 45 0 0 -51 c0 -82 9
-91 88 -83 37 3 72 12 78 20 8 10 14 10 22 2 6 -6 14 -9 18 -6 5 5 -1 18 -32
66 -1 2 -28 -4 -59 -12 l-57 -15 7 57 c4 31 18 92 31 134 24 74 24 79 8 103
-13 20 -14 29 -5 38 18 18 13 55 -11 68 -19 10 -25 8 -45 -15 -24 -29 -29 -46
-13 -46 23 0 7 -28 -28 -47 l-37 -22 -33 39 c-17 21 -32 43 -32 48 0 5 -8 16
-17 23 -15 12 -16 12 -10 -3 3 -10 3 -18 -1 -18 -14 0 -71 54 -74 70 -2 8 -9
21 -15 28 -18 19 -16 43 2 36 9 -4 24 3 35 16 18 20 18 24 3 46 -20 31 -47 30
-76 -2z"/>
</g>
</svg>
